<svg xmlns="http://www.w3.org/2000/svg" viewBox="0 0 144.74 135.2"><defs><style>.cls-1,.cls-2{fill:#41b983;}.cls-1{stroke:#41b983;stroke-miterlimit:10;}</style></defs><title>Carshare</title><g id="Layer_2"><g id="Layer_1-2"><path class="cls-1" d="M57.21,54.38A27.3,27.3,0,0,0,80.44,41.25H130a2.41,2.41,0,0,0,1.6-.6l11.93-10.74a2.49,2.49,0,0,0-.07-3.58L127.93,13.22a2.47,2.47,0,0,0-3.21.11l-5.48,5.48-5.48-5.48a2.48,2.48,0,0,0-3.36,0l-5.48,5.48-5.48-5.48a2.41,2.41,0,0,0-1.68-.71H80.4A27.3,27.3,0,0,0,29.77,26.94c-.29,15.44,13.56,28.14,27.44,27.44Zm0-4.77A22.67,22.67,0,1,1,77.16,16.16a2.44,2.44,0,0,0,2.09,1.23H96.77l6.49,6.49a2.48,2.48,0,0,0,3.36,0l5.48-5.48,5.48,5.48a2.48,2.48,0,0,0,3.36,0l5.63-5.63,11.74,10-9.21,8.28H79.25a2.44,2.44,0,0,0-2.09,1.27A23.64,23.64,0,0,1,57.21,49.6ZM48.86,33.85A6.91,6.91,0,1,0,42,26.94a6.93,6.93,0,0,0,6.91,6.91Z"/><path class="cls-2" d="M140.21,80l-.25-.55A11.21,11.21,0,0,0,125.08,74h0l-17.86,8.27A11.16,11.16,0,0,0,96.08,71.76h-37A51.73,51.73,0,0,0,24.48,85.08l-23.31,21A3.61,3.61,0,1,0,6,111.39L29.27,90.29A44.72,44.72,0,0,1,59.09,78.82h37a4.17,4.17,0,0,1,4.12,4,4.07,4.07,0,0,1-4,4.1H66.74a3.55,3.55,0,0,0,0,7.11H96.16a11.11,11.11,0,0,0,4.65-1h0l27.28-12.65a4.1,4.1,0,0,1,5.42,2l.25.55a4.07,4.07,0,0,1-2,5.41h0L88.58,108.38l-42.79.07a3.55,3.55,0,0,0-2.48.92L21.69,128.86a3.55,3.55,0,1,0,4.75,5.27L47,115.56H89.28a3.55,3.55,0,0,0,1.49-.32l43.9-20.32a11.18,11.18,0,0,0,5.48-14.83l0-.07Z"/></g></g></svg>